{"title":"Lilyhammer S03E08 - Loose Ends - Ehhhh.mkv","uid":11590484,"size":399928278,"categoryP":"video","categoryS":"hd___tv_shows","magnet":"?xt=urn:btih:ebbc003efd6b61cffffe6413e7dd4a6c938ddcb7&amp;dn=Lilyhammer+S03E08+-+Loose+Ends+-+Ehhhh.mkv&amp;tr=udp%3A%2F%2Ftracker.openbittorrent.com%3A80&amp;tr=udp%3A%2F%2Fopen.demonii.com%3A1337&amp;tr=udp%3A%2F%2Ftracker.coppersurfer.tk%3A6969&amp;tr=udp%3A%2F%2Fexodus.desync.com%3A6969","seeders":11,"leechers":0,"uploader":"mynameisurlz","files":1,"time":1417228686,"description":"\n24 :03x08 - Loose Ends\nDec/17/2014\nFrank can not allow Tommy to establish himself in the neighboring municipality, but Tommy is not willing to listen to Frank. The tone hardens even more when Frank and Torgeir meet the latest addition to Tommy's gang.\n\nGeneral\nFormat : Matroska\nFormat version : Version 4 / Version 2\nFile size : 381 MiB\nDuration : 44mn 30s\nOverall bit rate : 1 198 Kbps\nEncoded date : UTC 2014-11-28 17:48:02\nWriting application : mkvmerge v7.3.0 ('Nouages') 32bit built on Oct 22 2014 18:44:01\nWriting library : libebml v1.3.0 + libmatroska v1.4.1\nDURATION : 00:44:30.080000000\nNUMBER_OF_FRAMES : 83440\nNUMBER_OF_BYTES : 64081920\n_STATISTICS_WRITING_APP : mkvmerge v7.3.0 ('Nouages') 32bit built on Oct 22 2014 18:44:01\n_STATISTICS_WRITING_DATE_UTC : 2014-11-28 17:48:02\n_STATISTICS_TAGS : BPS DURATION NUMBER_OF_FRAMES NUMBER_OF_BYTES\n\nVideo\nID : 1\nFormat : AVC\nFormat/Info : Advanced Video Codec\nFormat profile : &lt;a class=&quot;__cf_email__&quot; href=&quot;/cdn-cgi/l/email-protection&quot; data-cfemail=&quot;357d5c525d7579011b04&quot;&gt;[email&amp;#160;protected]&lt;/a&gt;&lt;script cf-hash='f9e31' type=&quot;text/javascript&quot;&gt;\n/* &lt;![CDATA[ */!function(){try{var t=&quot;currentScript&quot;in document?document.currentScript:function(){for(var t=document.getElementsByTagName(&quot;script&quot;),e=t.length;e--;)if(t[e].getAttribute(&quot;cf-hash&quot;))return t[e]}();if(t&amp;&amp;t.previousSibling){var e,r,n,i,c=t.previousSibling,a=c.getAttribute(&quot;data-cfemail&quot;);if(a){for(e=&quot;&quot;,r=parseInt(a.substr(0,2),16),n=2;a.length-n;n+=2)i=parseInt(a.substr(n,2),16)^r,e+=String.fromCharCode(i);e=document.createTextNode(e),c.parentNode.replaceChild(e,c)}}}catch(u){}}();/* ]]&gt; */&lt;/script&gt;\nFormat settings, CABAC : Yes\nFormat settings, ReFrames : 9 frames\nCodec ID : V_MPEG4/ISO/AVC\nDuration : 44mn 30s\nBit rate : 1 010 Kbps\nWidth : 1 280 pixels\nHeight : 720 pixels\nDisplay aspect ratio : 16:9\nFrame rate mode : Constant\nFrame rate : 25.000 fps\nStandard : NTSC\nColor space : YUV\nChroma subsampling : 4:2:0\nBit depth : 8 bits\nScan type : Progressive\nBits/(Pixel*Frame) : 0.044\nStream size : 313 MiB (82%)\nWriting library : x264 core 142 r2479kMod dd79a61\nDefault : Yes\nForced : No\nColor range : Limited\n\nAudio\nID : 2\nFormat : AC-3\nFormat/Info : Audio Coding 3\nMode extension : CM (complete main)\nFormat settings, Endianness : Big\nCodec ID : A_AC3\nDuration : 44mn 30s\nBit rate mode : Constant\nBit rate : 192 Kbps\nChannel(s) : 2 channels\nChannel positions : Front: L R\nSampling rate : 48.0 KHz\nBit depth : 16 bits\nCompression mode : Lossy\nStream size : 61.1 MiB (16%)\nDefault : Yes\nForced : No","torrent":{"xt":"urn:btih:ebbc003efd6b61cffffe6413e7dd4a6c938ddcb7","amp;dn":"Lilyhammer+S03E08+-+Loose+Ends+-+Ehhhh.mkv","amp;tr":["udp%3A%2F%2Ftracker.openbittorrent.com%3A80","udp%3A%2F%2Fopen.demonii.com%3A1337","udp%3A%2F%2Ftracker.coppersurfer.tk%3A6969","udp%3A%2F%2Fexodus.desync.com%3A6969"],"infoHash":"ebbc003efd6b61cffffe6413e7dd4a6c938ddcb7","infoHashBuffer":{"type":"Buffer","data":[235,188,0,62,253,107,97,207,255,254,100,19,231,221,74,108,147,141,220,183]},"announce":[],"urlList":[]}}